<svg id="visual" viewBox="0 0 900 600" width="900" height="600" xmlns="http://www.w3.org/2000/svg" xmlns:xlink="http://www.w3.org/1999/xlink" version="1.1"><g stroke-width="1" stroke-linejoin="bevel"><path d="M421 278L481 278L407 213Z" fill="#f48f25" stroke="#f48f25"></path><path d="M481 278L485 176L407 213Z" fill="#d54a01" stroke="#d54a01"></path><path d="M485 176L432 120L407 213Z" fill="#f48f25" stroke="#f48f25"></path><path d="M481 278L561 190L485 176Z" fill="#c10000" stroke="#c10000"></path><path d="M485 176L490 69L432 120Z" fill="#ee821c" stroke="#ee821c"></path><path d="M421 278L467 377L481 278Z" fill="#fa9b2e" stroke="#fa9b2e"></path><path d="M481 278L622 299L561 190Z" fill="#dc5905" stroke="#dc5905"></path><path d="M262 218L308 298L407 213Z" fill="#c82500" stroke="#c82500"></path><path d="M407 213L308 298L421 278Z" fill="#c10000" stroke="#c10000"></path><path d="M421 278L404 438L467 377Z" fill="#f48f25" stroke="#f48f25"></path><path d="M432 120L329 122L407 213Z" fill="#c10000" stroke="#c10000"></path><path d="M600 116L490 69L485 176Z" fill="#dc5905" stroke="#dc5905"></path><path d="M432 120L377 0L329 122Z" fill="#c10000" stroke="#c10000"></path><path d="M467 377L622 299L481 278Z" fill="#e2670c" stroke="#e2670c"></path><path d="M329 122L262 218L407 213Z" fill="#c82500" stroke="#c82500"></path><path d="M687 186L600 116L561 190Z" fill="#c82500" stroke="#c82500"></path><path d="M561 190L600 116L485 176Z" fill="#f48f25" stroke="#f48f25"></path><path d="M308 298L404 438L421 278Z" fill="#e2670c" stroke="#e2670c"></path><path d="M467 377L636 420L622 299Z" fill="#c82500" stroke="#c82500"></path><path d="M715 385L688 263L622 299Z" fill="#fa9b2e" stroke="#fa9b2e"></path><path d="M622 299L688 263L561 190Z" fill="#ee821c" stroke="#ee821c"></path><path d="M591 0L483 0L490 69Z" fill="#fa9b2e" stroke="#fa9b2e"></path><path d="M490 69L377 0L432 120Z" fill="#dc5905" stroke="#dc5905"></path><path d="M262 218L215 281L308 298Z" fill="#f48f25" stroke="#f48f25"></path><path d="M308 298L285 439L404 438Z" fill="#dc5905" stroke="#dc5905"></path><path d="M185 170L215 281L262 218Z" fill="#c10000" stroke="#c10000"></path><path d="M688 263L687 186L561 190Z" fill="#f48f25" stroke="#f48f25"></path><path d="M600 116L591 0L490 69Z" fill="#fa9b2e" stroke="#fa9b2e"></path><path d="M271 0L232 128L329 122Z" fill="#ffa837" stroke="#ffa837"></path><path d="M329 122L232 128L262 218Z" fill="#f48f25" stroke="#f48f25"></path><path d="M483 0L377 0L490 69Z" fill="#e2670c" stroke="#e2670c"></path><path d="M404 438L534 479L467 377Z" fill="#c82500" stroke="#c82500"></path><path d="M534 479L636 420L467 377Z" fill="#d54a01" stroke="#d54a01"></path><path d="M219 398L285 439L308 298Z" fill="#d54a01" stroke="#d54a01"></path><path d="M404 438L416 532L534 479Z" fill="#dc5905" stroke="#dc5905"></path><path d="M232 128L185 170L262 218Z" fill="#cf3900" stroke="#cf3900"></path><path d="M697 109L591 0L600 116Z" fill="#ee821c" stroke="#ee821c"></path><path d="M687 186L697 109L600 116Z" fill="#cf3900" stroke="#cf3900"></path><path d="M788 131L697 109L687 186Z" fill="#c82500" stroke="#c82500"></path><path d="M285 439L328 487L404 438Z" fill="#c82500" stroke="#c82500"></path><path d="M130 305L219 398L215 281Z" fill="#ee821c" stroke="#ee821c"></path><path d="M215 281L219 398L308 298Z" fill="#ffa837" stroke="#ffa837"></path><path d="M285 439L229 496L328 487Z" fill="#dc5905" stroke="#dc5905"></path><path d="M534 479L591 492L636 420Z" fill="#c82500" stroke="#c82500"></path><path d="M522 600L591 492L534 479Z" fill="#c82500" stroke="#c82500"></path><path d="M328 487L416 532L404 438Z" fill="#cf3900" stroke="#cf3900"></path><path d="M377 0L271 0L329 122Z" fill="#dc5905" stroke="#dc5905"></path><path d="M76 86L114 165L185 170Z" fill="#e87414" stroke="#e87414"></path><path d="M692 520L715 385L636 420Z" fill="#e87414" stroke="#e87414"></path><path d="M636 420L715 385L622 299Z" fill="#dc5905" stroke="#dc5905"></path><path d="M688 263L778 225L687 186Z" fill="#f48f25" stroke="#f48f25"></path><path d="M789 273L778 225L688 263Z" fill="#e87414" stroke="#e87414"></path><path d="M185 170L130 305L215 281Z" fill="#fa9b2e" stroke="#fa9b2e"></path><path d="M715 385L789 273L688 263Z" fill="#dc5905" stroke="#dc5905"></path><path d="M219 398L229 496L285 439Z" fill="#ffa837" stroke="#ffa837"></path><path d="M315 600L430 600L416 532Z" fill="#ffa837" stroke="#ffa837"></path><path d="M127 512L229 496L219 398Z" fill="#d54a01" stroke="#d54a01"></path><path d="M76 86L185 170L232 128Z" fill="#e2670c" stroke="#e2670c"></path><path d="M185 170L114 165L130 305Z" fill="#c82500" stroke="#c82500"></path><path d="M271 0L195 0L232 128Z" fill="#c10000" stroke="#c10000"></path><path d="M788 131L711 0L697 109Z" fill="#ee821c" stroke="#ee821c"></path><path d="M697 109L711 0L591 0Z" fill="#f48f25" stroke="#f48f25"></path><path d="M778 225L788 131L687 186Z" fill="#e2670c" stroke="#e2670c"></path><path d="M900 197L788 131L778 225Z" fill="#ee821c" stroke="#ee821c"></path><path d="M315 600L416 532L328 487Z" fill="#d54a01" stroke="#d54a01"></path><path d="M416 532L522 600L534 479Z" fill="#f48f25" stroke="#f48f25"></path><path d="M430 600L522 600L416 532Z" fill="#c82500" stroke="#c82500"></path><path d="M591 492L692 520L636 420Z" fill="#e2670c" stroke="#e2670c"></path><path d="M586 600L692 520L591 492Z" fill="#dc5905" stroke="#dc5905"></path><path d="M715 385L834 374L789 273Z" fill="#fa9b2e" stroke="#fa9b2e"></path><path d="M522 600L586 600L591 492Z" fill="#c82500" stroke="#c82500"></path><path d="M229 496L315 600L328 487Z" fill="#ffa837" stroke="#ffa837"></path><path d="M0 271L101 410L130 305Z" fill="#ee821c" stroke="#ee821c"></path><path d="M130 305L101 410L219 398Z" fill="#c82500" stroke="#c82500"></path><path d="M229 496L231 600L315 600Z" fill="#ffa837" stroke="#ffa837"></path><path d="M195 0L76 86L232 128Z" fill="#cf3900" stroke="#cf3900"></path><path d="M114 165L0 236L130 305Z" fill="#dc5905" stroke="#dc5905"></path><path d="M798 479L834 374L715 385Z" fill="#cf3900" stroke="#cf3900"></path><path d="M789 273L900 197L778 225Z" fill="#dc5905" stroke="#dc5905"></path><path d="M802 600L798 479L692 520Z" fill="#e87414" stroke="#e87414"></path><path d="M692 520L798 479L715 385Z" fill="#ffa837" stroke="#ffa837"></path><path d="M127 512L231 600L229 496Z" fill="#dc5905" stroke="#dc5905"></path><path d="M101 410L127 512L219 398Z" fill="#d54a01" stroke="#d54a01"></path><path d="M195 0L91 0L76 86Z" fill="#f48f25" stroke="#f48f25"></path><path d="M586 600L703 600L692 520Z" fill="#e87414" stroke="#e87414"></path><path d="M900 99L828 0L788 131Z" fill="#c82500" stroke="#c82500"></path><path d="M788 131L828 0L711 0Z" fill="#ffa837" stroke="#ffa837"></path><path d="M900 294L789 273L834 374Z" fill="#dc5905" stroke="#dc5905"></path><path d="M900 294L900 197L789 273Z" fill="#ffa837" stroke="#ffa837"></path><path d="M0 94L114 165L76 86Z" fill="#e87414" stroke="#e87414"></path><path d="M0 94L0 236L114 165Z" fill="#c82500" stroke="#c82500"></path><path d="M101 410L0 484L127 512Z" fill="#cf3900" stroke="#cf3900"></path><path d="M0 236L0 271L130 305Z" fill="#c82500" stroke="#c82500"></path><path d="M900 425L900 294L834 374Z" fill="#ee821c" stroke="#ee821c"></path><path d="M900 197L900 99L788 131Z" fill="#c82500" stroke="#c82500"></path><path d="M0 0L0 94L76 86Z" fill="#fa9b2e" stroke="#fa9b2e"></path><path d="M900 495L900 425L798 479Z" fill="#e2670c" stroke="#e2670c"></path><path d="M798 479L900 425L834 374Z" fill="#dc5905" stroke="#dc5905"></path><path d="M0 271L0 426L101 410Z" fill="#ffa837" stroke="#ffa837"></path><path d="M127 512L66 600L231 600Z" fill="#c10000" stroke="#c10000"></path><path d="M703 600L802 600L692 520Z" fill="#cf3900" stroke="#cf3900"></path><path d="M900 99L900 0L828 0Z" fill="#cf3900" stroke="#cf3900"></path><path d="M91 0L0 0L76 86Z" fill="#e2670c" stroke="#e2670c"></path><path d="M0 426L0 484L101 410Z" fill="#dc5905" stroke="#dc5905"></path><path d="M802 600L900 495L798 479Z" fill="#ee821c" stroke="#ee821c"></path><path d="M0 484L66 600L127 512Z" fill="#f48f25" stroke="#f48f25"></path><path d="M802 600L900 600L900 495Z" fill="#ffa837" stroke="#ffa837"></path><path d="M0 484L0 600L66 600Z" fill="#cf3900" stroke="#cf3900"></path></g></svg>