<svg id="visual" viewBox="0 0 960 540" width="960" height="540" xmlns="http://www.w3.org/2000/svg" xmlns:xlink="http://www.w3.org/1999/xlink" version="1.1"><rect x="0" y="0" width="960" height="540" fill="#001220"></rect><defs><linearGradient id="grad1_0" x1="43.8%" y1="0%" x2="100%" y2="100%"><stop offset="14.444444444444446%" stop-color="#001220" stop-opacity="1"></stop><stop offset="85.55555555555554%" stop-color="#001220" stop-opacity="1"></stop></linearGradient></defs><defs><linearGradient id="grad2_0" x1="0%" y1="0%" x2="56.3%" y2="100%"><stop offset="14.444444444444446%" stop-color="#001220" stop-opacity="1"></stop><stop offset="85.55555555555554%" stop-color="#001220" stop-opacity="1"></stop></linearGradient></defs><g transform="translate(960, 0)"><path d="M0 418C-61.1 434.6 -122.1 451.2 -181.8 438.8C-241.4 426.5 -299.7 385.1 -334.5 334.5C-369.2 283.8 -380.5 223.8 -401.9 166.5C-423.2 109.2 -454.6 54.6 -486 0L0 0Z" fill="#FBAE3C"></path></g><g transform="translate(0, 540)"><path d="M0 -396C44 -384.4 87.9 -372.8 154.2 -372.3C220.5 -371.9 309.1 -382.6 343.7 -343.7C378.2 -304.7 358.7 -216 363.1 -150.4C367.5 -84.8 395.7 -42.4 424 0L0 0Z" fill="#FBAE3C"></path></g></svg>