<svg id="visual" viewBox="0 0 900 600" width="900" height="600" xmlns="http://www.w3.org/2000/svg" xmlns:xlink="http://www.w3.org/1999/xlink" version="1.1"><g stroke-width="1" stroke-linejoin="bevel"><path d="M368 299L276 322L371 363Z" fill="#ffaa00" stroke="#ffaa00"></path><path d="M276 322L285 367L371 363Z" fill="#602700" stroke="#602700"></path><path d="M368 299L330 227L276 322Z" fill="#602700" stroke="#602700"></path><path d="M276 322L224 366L285 367Z" fill="#602700" stroke="#602700"></path><path d="M178 326L224 366L276 322Z" fill="#e89501" stroke="#e89501"></path><path d="M224 366L325 477L285 367Z" fill="#000000" stroke="#000000"></path><path d="M285 367L325 477L371 363Z" fill="#ffaa00" stroke="#ffaa00"></path><path d="M174 230L178 326L276 322Z" fill="#602700" stroke="#602700"></path><path d="M224 366L229 539L325 477Z" fill="#743800" stroke="#743800"></path><path d="M325 477L460 423L371 363Z" fill="#ffaa00" stroke="#ffaa00"></path><path d="M371 363L530 268L368 299Z" fill="#3d0200" stroke="#3d0200"></path><path d="M368 299L435 161L330 227Z" fill="#a15c01" stroke="#a15c01"></path><path d="M330 227L174 230L276 322Z" fill="#743800" stroke="#743800"></path><path d="M325 477L388 516L460 423Z" fill="#d18102" stroke="#d18102"></path><path d="M506 232L435 161L368 299Z" fill="#743800" stroke="#743800"></path><path d="M330 227L238 112L174 230Z" fill="#4d1500" stroke="#4d1500"></path><path d="M530 268L506 232L368 299Z" fill="#a15c01" stroke="#a15c01"></path><path d="M460 423L530 268L371 363Z" fill="#743800" stroke="#743800"></path><path d="M174 230L110 299L178 326Z" fill="#ffaa00" stroke="#ffaa00"></path><path d="M178 326L115 392L224 366Z" fill="#b96e01" stroke="#b96e01"></path><path d="M388 516L508 460L460 423Z" fill="#4d1500" stroke="#4d1500"></path><path d="M460 423L594 365L530 268Z" fill="#b96e01" stroke="#b96e01"></path><path d="M110 299L115 392L178 326Z" fill="#d18102" stroke="#d18102"></path><path d="M325 477L317 600L388 516Z" fill="#b96e01" stroke="#b96e01"></path><path d="M115 392L229 539L224 366Z" fill="#4d1500" stroke="#4d1500"></path><path d="M381 67L271 108L330 227Z" fill="#e89501" stroke="#e89501"></path><path d="M174 230L83 224L110 299Z" fill="#ffaa00" stroke="#ffaa00"></path><path d="M271 108L238 112L330 227Z" fill="#ffaa00" stroke="#ffaa00"></path><path d="M594 365L588 277L530 268Z" fill="#d18102" stroke="#d18102"></path><path d="M530 268L600 202L506 232Z" fill="#8a4a00" stroke="#8a4a00"></path><path d="M569 136L466 89L435 161Z" fill="#000000" stroke="#000000"></path><path d="M229 539L317 600L325 477Z" fill="#a15c01" stroke="#a15c01"></path><path d="M388 516L500 600L508 460Z" fill="#743800" stroke="#743800"></path><path d="M70 88L83 224L174 230Z" fill="#ffaa00" stroke="#ffaa00"></path><path d="M110 299L0 409L115 392Z" fill="#602700" stroke="#602700"></path><path d="M508 460L594 365L460 423Z" fill="#3d0200" stroke="#3d0200"></path><path d="M466 89L381 67L435 161Z" fill="#e89501" stroke="#e89501"></path><path d="M435 161L381 67L330 227Z" fill="#a15c01" stroke="#a15c01"></path><path d="M271 108L213 0L238 112Z" fill="#e89501" stroke="#e89501"></path><path d="M317 600L378 600L388 516Z" fill="#000000" stroke="#000000"></path><path d="M569 136L435 161L506 232Z" fill="#a15c01" stroke="#a15c01"></path><path d="M84 530L197 600L229 539Z" fill="#602700" stroke="#602700"></path><path d="M229 539L197 600L317 600Z" fill="#a15c01" stroke="#a15c01"></path><path d="M588 277L600 202L530 268Z" fill="#602700" stroke="#602700"></path><path d="M687 181L600 202L715 285Z" fill="#ffaa00" stroke="#ffaa00"></path><path d="M500 600L598 479L508 460Z" fill="#b96e01" stroke="#b96e01"></path><path d="M508 460L598 479L594 365Z" fill="#743800" stroke="#743800"></path><path d="M594 365L715 285L588 277Z" fill="#4d1500" stroke="#4d1500"></path><path d="M600 202L569 136L506 232Z" fill="#4d1500" stroke="#4d1500"></path><path d="M115 392L84 530L229 539Z" fill="#a15c01" stroke="#a15c01"></path><path d="M0 409L84 530L115 392Z" fill="#a15c01" stroke="#a15c01"></path><path d="M378 600L500 600L388 516Z" fill="#b96e01" stroke="#b96e01"></path><path d="M423 0L308 0L381 67Z" fill="#743800" stroke="#743800"></path><path d="M381 67L308 0L271 108Z" fill="#a15c01" stroke="#a15c01"></path><path d="M70 88L0 233L83 224Z" fill="#a15c01" stroke="#a15c01"></path><path d="M423 0L381 67L466 89Z" fill="#4d1500" stroke="#4d1500"></path><path d="M0 233L0 260L83 224Z" fill="#3d0200" stroke="#3d0200"></path><path d="M83 224L0 260L110 299Z" fill="#602700" stroke="#602700"></path><path d="M0 260L0 409L110 299Z" fill="#8a4a00" stroke="#8a4a00"></path><path d="M70 88L174 230L238 112Z" fill="#b96e01" stroke="#b96e01"></path><path d="M498 0L423 0L466 89Z" fill="#8a4a00" stroke="#8a4a00"></path><path d="M308 0L213 0L271 108Z" fill="#8a4a00" stroke="#8a4a00"></path><path d="M213 0L70 88L238 112Z" fill="#743800" stroke="#743800"></path><path d="M0 539L89 600L84 530Z" fill="#3d0200" stroke="#3d0200"></path><path d="M84 530L89 600L197 600Z" fill="#a15c01" stroke="#a15c01"></path><path d="M569 136L498 0L466 89Z" fill="#602700" stroke="#602700"></path><path d="M500 600L593 600L598 479Z" fill="#000000" stroke="#000000"></path><path d="M593 600L664 509L598 479Z" fill="#d18102" stroke="#d18102"></path><path d="M598 479L710 368L594 365Z" fill="#d18102" stroke="#d18102"></path><path d="M664 509L710 368L598 479Z" fill="#602700" stroke="#602700"></path><path d="M600 202L687 181L569 136Z" fill="#a15c01" stroke="#a15c01"></path><path d="M569 136L614 0L498 0Z" fill="#4d1500" stroke="#4d1500"></path><path d="M0 409L0 539L84 530Z" fill="#3d0200" stroke="#3d0200"></path><path d="M715 285L600 202L588 277Z" fill="#4d1500" stroke="#4d1500"></path><path d="M710 368L715 285L594 365Z" fill="#4d1500" stroke="#4d1500"></path><path d="M213 0L87 0L70 88Z" fill="#743800" stroke="#743800"></path><path d="M70 88L0 79L0 233Z" fill="#4d1500" stroke="#4d1500"></path><path d="M0 0L0 79L70 88Z" fill="#8a4a00" stroke="#8a4a00"></path><path d="M0 539L0 600L89 600Z" fill="#a15c01" stroke="#a15c01"></path><path d="M802 172L705 128L687 181Z" fill="#000000" stroke="#000000"></path><path d="M687 181L705 128L569 136Z" fill="#602700" stroke="#602700"></path><path d="M705 128L614 0L569 136Z" fill="#602700" stroke="#602700"></path><path d="M593 600L679 600L664 509Z" fill="#602700" stroke="#602700"></path><path d="M664 509L760 437L710 368Z" fill="#743800" stroke="#743800"></path><path d="M710 368L807 332L715 285Z" fill="#743800" stroke="#743800"></path><path d="M715 285L802 172L687 181Z" fill="#a15c01" stroke="#a15c01"></path><path d="M834 507L760 437L664 509Z" fill="#3d0200" stroke="#3d0200"></path><path d="M87 0L0 0L70 88Z" fill="#000000" stroke="#000000"></path><path d="M760 437L807 332L710 368Z" fill="#602700" stroke="#602700"></path><path d="M769 77L695 0L705 128Z" fill="#602700" stroke="#602700"></path><path d="M705 128L695 0L614 0Z" fill="#e89501" stroke="#e89501"></path><path d="M807 332L802 172L715 285Z" fill="#ffaa00" stroke="#ffaa00"></path><path d="M802 172L769 77L705 128Z" fill="#a15c01" stroke="#a15c01"></path><path d="M679 600L790 600L664 509Z" fill="#4d1500" stroke="#4d1500"></path><path d="M760 437L900 436L807 332Z" fill="#743800" stroke="#743800"></path><path d="M790 600L834 507L664 509Z" fill="#d18102" stroke="#d18102"></path><path d="M807 332L900 315L802 172Z" fill="#d18102" stroke="#d18102"></path><path d="M900 436L900 315L807 332Z" fill="#3d0200" stroke="#3d0200"></path><path d="M900 130L805 0L769 77Z" fill="#a15c01" stroke="#a15c01"></path><path d="M834 507L900 436L760 437Z" fill="#b96e01" stroke="#b96e01"></path><path d="M900 518L900 436L834 507Z" fill="#b96e01" stroke="#b96e01"></path><path d="M900 130L769 77L802 172Z" fill="#e89501" stroke="#e89501"></path><path d="M769 77L805 0L695 0Z" fill="#d18102" stroke="#d18102"></path><path d="M900 315L900 186L802 172Z" fill="#000000" stroke="#000000"></path><path d="M900 600L900 518L834 507Z" fill="#e89501" stroke="#e89501"></path><path d="M900 186L900 130L802 172Z" fill="#3d0200" stroke="#3d0200"></path><path d="M790 600L900 600L834 507Z" fill="#4d1500" stroke="#4d1500"></path><path d="M900 130L900 0L805 0Z" fill="#e89501" stroke="#e89501"></path></g></svg>