<svg id="visual" viewBox="0 0 900 600" width="900" height="600" xmlns="http://www.w3.org/2000/svg" xmlns:xlink="http://www.w3.org/1999/xlink" version="1.1"><rect x="0" y="0" width="900" height="600" fill="#ffaa00"></rect><path d="M0 416L129 423L257 361L386 372L514 423L643 377L771 413L900 417L900 601L771 601L643 601L514 601L386 601L257 601L129 601L0 601Z" fill="#000000"></path><path d="M0 404L129 393L257 434L386 463L514 418L643 464L771 456L900 444L900 601L771 601L643 601L514 601L386 601L257 601L129 601L0 601Z" fill="#640000"></path><path d="M0 495L129 445L257 483L386 461L514 467L643 454L771 495L900 474L900 601L771 601L643 601L514 601L386 601L257 601L129 601L0 601Z" fill="#921e00"></path><path d="M0 481L129 541L257 542L386 511L514 508L643 526L771 512L900 522L900 601L771 601L643 601L514 601L386 601L257 601L129 601L0 601Z" fill="#c44805"></path><path d="M0 526L129 537L257 551L386 543L514 556L643 527L771 574L900 550L900 601L771 601L643 601L514 601L386 601L257 601L129 601L0 601Z" fill="#f5730a"></path></svg>