<svg id="visual" viewBox="0 0 900 600" width="900" height="600" xmlns="http://www.w3.org/2000/svg" xmlns:xlink="http://www.w3.org/1999/xlink" version="1.1"><path d="M0 127L82 127L82 67L164 67L164 49L245 49L245 97L327 97L327 61L409 61L409 145L491 145L491 175L573 175L573 91L655 91L655 61L736 61L736 49L818 49L818 67L900 67L900 61L900 0L900 0L818 0L818 0L736 0L736 0L655 0L655 0L573 0L573 0L491 0L491 0L409 0L409 0L327 0L327 0L245 0L245 0L164 0L164 0L82 0L82 0L0 0Z" fill="#f5730a"></path><path d="M0 289L82 289L82 211L164 211L164 325L245 325L245 223L327 223L327 229L409 229L409 289L491 289L491 259L573 259L573 199L655 199L655 349L736 349L736 241L818 241L818 199L900 199L900 319L900 59L900 65L818 65L818 47L736 47L736 59L655 59L655 89L573 89L573 173L491 173L491 143L409 143L409 59L327 59L327 95L245 95L245 47L164 47L164 65L82 65L82 125L0 125Z" fill="#7a0000"></path><path d="M0 433L82 433L82 421L164 421L164 421L245 421L245 463L327 463L327 463L409 463L409 421L491 421L491 481L573 481L573 445L655 445L655 439L736 439L736 397L818 397L818 397L900 397L900 451L900 317L900 197L818 197L818 239L736 239L736 347L655 347L655 197L573 197L573 257L491 257L491 287L409 287L409 227L327 227L327 221L245 221L245 323L164 323L164 209L82 209L82 287L0 287Z" fill="#000000"></path><path d="M0 553L82 553L82 505L164 505L164 499L245 499L245 553L327 553L327 565L409 565L409 541L491 541L491 559L573 559L573 565L655 565L655 499L736 499L736 511L818 511L818 505L900 505L900 505L900 449L900 395L818 395L818 395L736 395L736 437L655 437L655 443L573 443L573 479L491 479L491 419L409 419L409 461L327 461L327 461L245 461L245 419L164 419L164 419L82 419L82 431L0 431Z" fill="#7a0000"></path><path d="M0 601L82 601L82 601L164 601L164 601L245 601L245 601L327 601L327 601L409 601L409 601L491 601L491 601L573 601L573 601L655 601L655 601L736 601L736 601L818 601L818 601L900 601L900 601L900 503L900 503L818 503L818 509L736 509L736 497L655 497L655 563L573 563L573 557L491 557L491 539L409 539L409 563L327 563L327 551L245 551L245 497L164 497L164 503L82 503L82 551L0 551Z" fill="#f5730a"></path></svg>