<svg id="visual" viewBox="0 0 540 960" width="540" height="960" xmlns="http://www.w3.org/2000/svg" xmlns:xlink="http://www.w3.org/1999/xlink" version="1.1"><rect x="0" y="0" width="540" height="960" fill="#fff"></rect><path d="M0 330L77 289L154 297L231 396L309 352L386 309L463 263L540 281L540 0L463 0L386 0L309 0L231 0L154 0L77 0L0 0Z" fill="#000000"></path><path d="M0 319L77 244L154 215L231 227L309 323L386 214L463 238L540 232L540 0L463 0L386 0L309 0L231 0L154 0L77 0L0 0Z" fill="#3b3b3b"></path><path d="M0 208L77 236L154 225L231 203L309 221L386 212L463 179L540 227L540 0L463 0L386 0L309 0L231 0L154 0L77 0L0 0Z" fill="#777777"></path><path d="M0 122L77 157L154 116L231 182L309 164L386 121L463 137L540 124L540 0L463 0L386 0L309 0L231 0L154 0L77 0L0 0Z" fill="#b9b9b9"></path><path d="M0 54L77 82L154 50L231 73L309 99L386 93L463 47L540 117L540 0L463 0L386 0L309 0L231 0L154 0L77 0L0 0Z" fill="#ffffff"></path></svg>