<svg id="visual" viewBox="0 0 675 900" width="675" height="900" xmlns="http://www.w3.org/2000/svg" xmlns:xlink="http://www.w3.org/1999/xlink" version="1.1"><rect x="0" y="0" width="675" height="900" fill="#ffffff"></rect><path d="M0 360L96 229L193 309L289 245L386 319L482 352L579 252L675 281L675 0L579 0L482 0L386 0L289 0L193 0L96 0L0 0Z" fill="#ffffff"></path><path d="M0 267L96 230L193 199L289 308L386 237L482 187L579 225L675 220L675 0L579 0L482 0L386 0L289 0L193 0L96 0L0 0Z" fill="#ffd5c9"></path><path d="M0 167L96 183L193 197L289 163L386 226L482 142L579 168L675 191L675 0L579 0L482 0L386 0L289 0L193 0L96 0L0 0Z" fill="#ffab95"></path><path d="M0 123L96 87L193 126L289 149L386 156L482 145L579 101L675 101L675 0L579 0L482 0L386 0L289 0L193 0L96 0L0 0Z" fill="#fa8063"></path><path d="M0 52L96 84L193 61L289 41L386 97L482 102L579 49L675 39L675 0L579 0L482 0L386 0L289 0L193 0L96 0L0 0Z" fill="#f05033"></path></svg>