<svg id="visual" viewBox="0 0 540 960" width="540" height="960" xmlns="http://www.w3.org/2000/svg" xmlns:xlink="http://www.w3.org/1999/xlink" version="1.1"><rect x="0" y="0" width="540" height="960" fill="#fff"></rect><path d="M0 332L77 349L154 263L231 393L309 354L386 293L463 367L540 397L540 0L463 0L386 0L309 0L231 0L154 0L77 0L0 0Z" fill="#ffffff"></path><path d="M0 214L77 320L154 279L231 320L309 284L386 197L463 265L540 297L540 0L463 0L386 0L309 0L231 0L154 0L77 0L0 0Z" fill="#e1c7ff"></path><path d="M0 239L77 208L154 235L231 215L309 172L386 175L463 209L540 146L540 0L463 0L386 0L309 0L231 0L154 0L77 0L0 0Z" fill="#bf8fff"></path><path d="M0 157L77 184L154 126L231 134L309 134L386 125L463 181L540 105L540 0L463 0L386 0L309 0L231 0L154 0L77 0L0 0Z" fill="#9456ff"></path><path d="M0 91L77 86L154 118L231 70L309 43L386 80L463 114L540 69L540 0L463 0L386 0L309 0L231 0L154 0L77 0L0 0Z" fill="#5500ff"></path></svg>