<?xml version="1.0" encoding="UTF-8" standalone="no"?>
<!-- Created with Inkscape (http://www.inkscape.org/) -->

<svg
   width="210mm"
   height="297mm"
   viewBox="0 0 210 297"
   version="1.1"
   id="svg5"
   inkscape:version="1.1 (c68e22c387, 2021-05-23)"
   sodipodi:docname="logo1.svg"
   xmlns:inkscape="http://www.inkscape.org/namespaces/inkscape"
   xmlns:sodipodi="http://sodipodi.sourceforge.net/DTD/sodipodi-0.dtd"
   xmlns="http://www.w3.org/2000/svg"
   xmlns:svg="http://www.w3.org/2000/svg">
  <sodipodi:namedview
     id="namedview7"
     pagecolor="#505050"
     bordercolor="#eeeeee"
     borderopacity="1"
     inkscape:pageshadow="0"
     inkscape:pageopacity="0"
     inkscape:pagecheckerboard="0"
     inkscape:document-units="mm"
     showgrid="false"
     inkscape:zoom="0.45611672"
     inkscape:cx="397.92446"
     inkscape:cy="562.35605"
     inkscape:window-width="1366"
     inkscape:window-height="697"
     inkscape:window-x="-8"
     inkscape:window-y="-8"
     inkscape:window-maximized="1"
     inkscape:current-layer="layer1" />
  <defs
     id="defs2" />
  <g
     inkscape:label="Camada 1"
     inkscape:groupmode="layer"
     id="layer1">
    <path
       style="fill:#ffffff;stroke-width:1.26984"
       d="M 37.571213,209.16515 C 22.864358,194.49687 21.613517,191.70672 27.228244,186.09411 c 5.921057,-5.91884 9.460865,-4.54082 22.935341,8.92861 13.263109,13.25815 14.70985,16.75403 9.109899,22.01296 -5.76774,5.41647 -9.87308,3.92763 -21.702271,-7.87053 z M 68.231815,178.21682 C 45.264054,155.34817 25.939988,135.31234 25.289447,133.69276 c -2.734783,-6.80849 3.951595,-14.14397 11.228297,-12.31831 3.315421,0.83181 83.703216,80.20525 86.476596,85.3854 2.1817,4.07505 1.77838,6.47777 -1.66517,9.92005 -2.02547,2.02472 -4.55717,3.11627 -7.22764,3.11627 -3.69976,0 -8.27978,-4.15163 -45.869715,-41.57935 z M 101.20804,145.20725 C 60.085184,104.18336 25.88951,69.227813 25.217649,67.528293 c -1.675916,-4.23937 0.741174,-9.64612 5.123472,-11.46064 2.463121,-1.01989 20.795373,-1.32827 63.077224,-1.06113 59.237135,0.37429 59.651975,0.39515 67.225395,3.37789 5.65136,2.22576 9.64342,5.08403 15.44945,11.06168 15.64879,16.11134 18.38239,37.274787 7.24327,56.076587 -5.20638,8.78788 -10.02457,13.19172 -20.15258,18.41943 -6.35614,3.28082 -9.46421,4.02745 -18.73357,4.50027 -6.11224,0.31177 -11.11315,0.77815 -11.11315,1.03642 0,0.25826 12.22721,12.68154 27.17161,27.60727 26.82835,26.79485 29.9817,30.41625 29.9817,34.43195 0,3.58805 -5.87769,8.27815 -10.37425,8.27815 -3.777,0 -10.68439,-6.5293 -78.90818,-74.58892 z m 55.01655,-19.04399 c 9.01204,-4.71975 14.59321,-14.16024 14.44757,-24.43788 -0.10512,-7.415855 -2.11659,-12.432827 -7.59344,-18.939267 -7.07547,-8.40554 -6.50013,-8.31878 -58.00071,-8.74801 -25.671384,-0.21396 -46.675224,-0.0591 -46.675224,0.34392 0,0.40313 12.30651,13.00439 27.34781,28.002817 l 27.347814,27.26983 h 18.22981 c 17.42424,0 18.52441,-0.15436 24.89637,-3.49141 z"
       id="path28" />
  </g>
</svg>
